<svg width="26" height="26" viewBox="0 0 26 26" fill="none" xmlns="http://www.w3.org/2000/svg">
<path d="M23.1988 0.882843C22.5384 0.882843 21.9564 1.20471 21.5858 1.69462H4.51778C4.14721 1.20471 3.56517 0.882843 2.90484 0.882843C1.7858 0.882843 0.875427 1.79327 0.875427 2.91225C0.875427 4.03124 1.7858 4.94167 2.90484 4.94167C3.56522 4.94167 4.14726 4.6198 4.51778 4.12989H4.9342V21.5827C4.9342 21.7458 5.03204 21.8936 5.18258 21.9569L12.8943 25.2035C12.9446 25.2247 12.9982 25.2352 13.0518 25.2352C13.1053 25.2352 13.1589 25.2247 13.2092 25.2035L20.9209 21.9569C21.0715 21.8936 21.1693 21.7459 21.1693 21.5827V4.12989H21.5857C21.9563 4.6198 22.5383 4.94167 23.1987 4.94167C24.3177 4.94167 25.2281 4.03129 25.2281 2.91225C25.2282 1.79327 24.3178 0.882843 23.1988 0.882843ZM21.2104 3.31812H20.7635H5.34011H4.89325C4.92003 3.18703 4.93425 3.05105 4.93425 2.91225C4.93425 2.77346 4.92003 2.63748 4.89325 2.50639H21.2104C21.1836 2.63748 21.1694 2.77346 21.1694 2.91225C21.1694 3.05105 21.1836 3.18703 21.2104 3.31812Z" fill="#E8C29F"/>
</svg>
