<svg width="26" height="25" viewBox="0 0 26 25" fill="none" xmlns="http://www.w3.org/2000/svg">
<path d="M23.1988 0.00344849C22.5384 0.00344849 21.9564 0.325314 21.5858 0.815223H4.51778C4.14721 0.325314 3.56517 0.00344849 2.90484 0.00344849C1.7858 0.00344849 0.875427 0.913871 0.875427 2.03286C0.875427 3.15185 1.7858 4.06227 2.90484 4.06227C3.56522 4.06227 4.14726 3.74041 4.51778 3.2505H4.9342V20.7033C4.9342 20.8664 5.03204 21.0142 5.18258 21.0775L12.8943 24.3241C12.9446 24.3453 12.9982 24.3558 13.0518 24.3558C13.1053 24.3558 13.1589 24.3453 13.2092 24.3241L20.9209 21.0775C21.0715 21.0142 21.1693 20.8665 21.1693 20.7033V3.2505H21.5857C21.9563 3.74041 22.5383 4.06227 23.1987 4.06227C24.3177 4.06227 25.2281 3.1519 25.2281 2.03286C25.2282 0.913871 24.3178 0.00344849 23.1988 0.00344849ZM21.2104 2.43872H20.7635H5.34011H4.89325C4.92003 2.30764 4.93425 2.17165 4.93425 2.03286C4.93425 1.89407 4.92003 1.75808 4.89325 1.627H21.2104C21.1836 1.75808 21.1694 1.89407 21.1694 2.03286C21.1694 2.17165 21.1836 2.30764 21.2104 2.43872Z" fill="#F7CA59"/>
</svg>
