<svg width="26" height="26" viewBox="0 0 26 26" fill="none" xmlns="http://www.w3.org/2000/svg">
<path d="M23.1988 0.983429C22.5384 0.983429 21.9564 1.30529 21.5858 1.7952H4.51778C4.14721 1.30529 3.56517 0.983429 2.90484 0.983429C1.7858 0.983429 0.875427 1.89385 0.875427 3.01284C0.875427 4.13183 1.7858 5.04225 2.90484 5.04225C3.56522 5.04225 4.14726 4.72039 4.51778 4.23048H4.9342V21.6833C4.9342 21.8464 5.03204 21.9942 5.18258 22.0575L12.8943 25.3041C12.9446 25.3252 12.9982 25.3358 13.0518 25.3358C13.1053 25.3358 13.1589 25.3252 13.2092 25.3041L20.9209 22.0575C21.0715 21.9942 21.1693 21.8465 21.1693 21.6833V4.23048H21.5857C21.9563 4.72039 22.5383 5.04225 23.1987 5.04225C24.3177 5.04225 25.2281 4.13188 25.2281 3.01284C25.2282 1.89385 24.3178 0.983429 23.1988 0.983429ZM21.2104 3.4187H20.7635H5.34011H4.89325C4.92003 3.28762 4.93425 3.15163 4.93425 3.01284C4.93425 2.87405 4.92003 2.73806 4.89325 2.60698H21.2104C21.1836 2.73806 21.1694 2.87405 21.1694 3.01284C21.1694 3.15163 21.1836 3.28762 21.2104 3.4187Z" fill="#D1D1D1"/>
</svg>
