<svg width="829" height="100" viewBox="0 0 829 100" fill="none" xmlns="http://www.w3.org/2000/svg">
<path d="M151.149 99.0696C159.631 86.8705 159.084 69.57 159.084 68.0174C159.084 64.6903 157.716 61.8069 153.064 60.2543C153.885 61.3633 154.432 62.0287 154.706 62.9159C156.074 65.5776 154.706 68.2392 151.696 69.3482C148.96 70.4572 146.497 69.57 144.582 66.6866C144.034 66.0212 143.761 65.1339 143.487 64.4685C142.393 61.3633 143.761 58.7017 145.129 55.8183C148.413 49.8296 147.865 44.2846 142.393 38.9613C141.025 37.6305 141.025 35.4125 140.751 33.6381C140.477 32.9727 141.298 32.0855 141.298 31.1983C141.572 30.3111 141.572 29.6457 141.572 28.7584C138.015 32.9727 136.099 37.4087 138.562 42.2884C140.204 46.059 139.383 49.6078 136.373 52.713C134.731 54.4875 131.995 54.7093 128.985 53.3784C126.522 52.2694 125.975 51.1604 127.069 48.7206C128.164 46.059 129.806 43.3974 130.9 40.5139C131.995 37.4087 133.363 34.0817 133.089 30.7547C132.268 23.657 127.343 18.3338 119.955 14.1195C118.04 13.0105 116.398 11.2361 115.851 9.68348C115.03 6.80005 115.303 3.91663 115.03 0.5896C114.483 2.36401 113.662 4.13843 113.388 5.69104C112.841 9.90528 112.567 13.8977 115.851 17.8901C119.134 21.8826 120.229 26.7622 119.408 31.6419C118.861 34.9689 114.483 37.6305 109.557 37.6305C105.453 37.6305 102.169 35.1907 101.075 31.6419C100.254 28.093 101.622 24.9878 103.537 22.1044C104.358 20.7736 105.453 19.221 106.274 17.8901C105.179 18.3337 104.632 18.9992 103.811 19.8864C98.6121 25.4314 94.5076 31.4201 95.8758 38.7395C96.9703 43.3974 98.3384 48.277 99.7066 52.9348C100.527 55.8183 100.527 58.9235 98.3384 61.5851C96.6967 63.8031 93.1395 64.9121 90.6768 64.2467C88.7614 63.5813 87.9405 61.5851 88.4878 58.9235C88.7614 56.9273 89.035 54.7093 88.7614 52.713C88.4878 49.6078 84.657 46.2808 80.8262 45.6154C81.6471 46.5026 83.0152 47.3898 83.2888 48.277C84.1097 52.4912 84.9306 56.7055 81.0998 60.4761C78.9108 62.6941 75.6272 63.3595 73.4382 65.5776C71.5228 67.352 71.2492 69.3482 71.7964 71.1226L151.149 99.0696Z" fill="white"/>
<path d="M212.221 69.6585C211.126 71.6547 210.032 74.9817 209.758 77.4215L245.056 75.8689C245.056 75.6471 247.792 82.7448 247.792 82.523C247.245 78.0869 246.151 71.2111 245.603 69.8803C244.782 66.1096 241.772 64.1134 239.036 61.23C236.026 58.3466 235.479 55.2413 237.394 51.6925C237.942 50.5835 238.215 49.2527 238.763 47.4783C237.942 47.9219 237.942 48.1437 237.668 48.1437C233.564 52.1361 232.743 56.5722 234.932 61.4518C236.026 64.1134 236.3 66.5532 234.111 68.7713C231.375 71.4329 227.544 71.2111 226.176 67.8841C225.355 65.8878 225.355 63.8916 225.355 61.6736C225.355 58.1248 226.176 54.7977 225.902 51.2489C225.628 47.0347 221.25 41.046 216.325 39.2716C217.146 40.6024 218.24 41.4896 219.061 42.8204C219.882 44.1512 221.25 45.4821 221.524 47.0347C223.166 52.8015 220.703 58.1248 216.872 63.0044C214.957 65.0006 213.315 67.4404 212.221 69.6585Z" fill="white"/>
<path d="M373.945 63.4216C373.398 68.0794 370.114 72.0719 366.557 76.0643C366.01 76.7297 365.462 76.9515 365.462 77.6169C364.915 80.2786 363.821 83.8274 363.547 86.7108L394.194 90.0378C394.467 88.9288 396.93 83.8274 397.203 82.7184C398.024 79.1695 398.298 75.6207 401.308 72.5155C402.95 70.5193 405.139 68.7449 406.507 66.7486C410.611 61.6472 407.054 56.7675 398.024 54.9931C398.298 55.4367 398.572 55.8803 399.119 56.3239C400.761 58.7638 400.761 61.4254 399.392 63.8652C398.845 64.9742 397.477 65.8614 395.288 65.6396C393.92 65.4178 392.005 64.7524 391.457 64.087C390.636 62.978 390.363 61.6472 390.089 60.5382C389.542 57.8766 392.004 55.6585 393.92 53.2187C397.477 49.2263 398.572 45.2338 396.93 41.0196C394.741 35.031 385.437 31.4821 377.776 30.5949C379.144 31.2603 379.965 31.7039 380.786 31.9257C385.985 33.7001 387.9 36.5836 388.995 39.6888C390.363 43.0158 384.89 46.5647 379.144 46.3429C373.671 46.1211 369.841 43.0158 370.935 39.6888C372.03 37.0272 373.398 34.5874 374.766 32.1475C376.955 28.1551 374.219 23.0537 367.651 20.8356C368.472 21.9446 369.567 22.8318 370.661 23.9409C372.577 25.7153 372.577 27.7115 370.388 29.4859C369.02 30.5949 367.925 31.4821 366.557 32.5911C357.801 39.6888 358.348 48.3391 368.472 54.9931C373.398 57.2112 374.492 60.0946 373.945 63.4216Z" fill="white"/>
<path d="M175.116 68.8846C174.569 73.5425 171.286 77.5349 167.728 81.5274C167.181 82.1928 166.634 82.4146 166.634 83.08C166.087 85.7416 164.992 89.2904 164.718 92.1739L195.365 95.5009C195.639 94.3919 198.101 89.2904 198.375 88.1814C199.196 84.6326 199.469 81.0838 202.479 77.9785C204.121 75.9823 206.31 74.2079 207.678 72.2117C211.783 67.1102 208.226 62.2306 199.196 60.4562C199.469 60.8998 199.743 61.3434 200.29 61.787C201.932 64.2268 201.932 66.8884 200.564 69.3283C200.017 70.4373 198.649 71.3245 196.459 71.1027C195.091 70.8809 193.176 70.2155 192.629 69.55C191.808 68.441 191.534 67.1102 191.261 66.0012C190.713 63.3396 193.176 61.1216 195.091 58.6818C198.649 54.6893 199.743 50.6969 198.101 46.4827C195.912 40.494 186.609 36.9452 178.947 36.058C180.315 36.7234 181.136 37.167 181.957 37.3888C187.156 39.1632 189.072 42.0466 190.166 45.1518C191.534 48.4789 186.062 52.0277 180.315 51.8059C174.843 51.5841 171.012 48.4789 172.106 45.1518C173.201 42.4902 174.569 40.0504 175.937 37.6106C178.126 33.6181 175.39 28.5167 168.823 26.2987C169.644 27.4077 170.738 28.2949 171.833 29.4039C173.748 31.1783 173.748 33.1745 171.559 34.9489C170.191 36.058 169.097 36.9452 167.728 38.0542C158.972 45.1518 159.52 53.8021 169.644 60.4562C174.569 62.6742 175.664 65.5576 175.116 68.8846Z" fill="white"/>
<path d="M5.69906 65.0636C6.79357 66.6163 0.773731 79.9244 0.226473 81.6988C-0.868044 84.1386 64.2557 74.1575 64.5293 72.3831C65.0766 69.0561 65.6238 65.7291 69.181 63.0674C71.6437 61.293 72.1909 58.8532 71.37 56.4134C70.5492 52.1991 68.3601 48.6503 65.0766 45.3233C62.3403 42.4398 62.3403 39.5564 63.9821 36.2294C64.5293 35.1204 65.0766 33.7896 65.6239 32.6806L65.0766 32.4588C64.2557 33.5678 63.1612 34.8986 62.3403 36.0076C59.3304 41.109 58.2359 46.4323 60.4249 51.9773C61.5194 54.8608 60.9721 57.966 57.6886 59.7404C55.4996 61.0712 52.4897 62.1802 49.7534 62.8456C44.5544 63.9546 40.4499 61.0712 40.4499 56.6352C40.4499 54.639 40.7236 52.4209 40.1763 50.4247C38.8082 45.3233 34.7038 41.3308 30.5993 37.782C28.4103 35.7858 26.4949 33.7896 26.2212 31.1279C25.9476 28.0227 26.2212 24.9175 26.2212 21.8123C25.9476 22.0341 25.4004 22.4777 25.1267 23.1431C21.0223 28.9099 21.5695 34.6768 25.4003 40.2218C27.5894 43.5488 28.9576 46.6541 28.6839 50.2029C28.4103 54.639 24.5795 58.6314 19.9278 59.2968C15.5497 59.9622 13.0871 58.1878 13.3607 54.639C13.3607 53.5299 13.9079 52.4209 14.1816 51.5337C15.2761 48.2067 12.2662 44.6579 7.8881 44.2143C8.98261 45.7669 11.1717 46.8759 10.0771 48.8721C9.25625 50.4247 7.88811 51.9773 6.7936 53.3081C6.51997 53.5299 6.24631 53.7517 6.24631 53.9735C4.05727 55.9698 3.51002 58.4096 4.33091 61.0712C4.60454 62.6238 4.87817 63.9546 5.69906 65.0636Z" fill="white"/>
<path d="M359.349 74.6012C358.254 76.1539 364.274 89.462 364.821 91.2364C365.916 93.6762 300.792 83.6951 300.518 81.9207C299.971 78.5937 299.424 75.2667 295.867 72.605C293.404 70.8306 292.857 68.3908 293.678 65.951C294.499 61.7367 296.688 58.1879 299.971 54.8609C302.708 51.9774 302.707 49.094 301.066 45.767C300.518 44.658 299.971 43.3272 299.424 42.2182L299.971 41.9963C300.792 43.1054 301.887 44.4362 302.708 45.5452C305.717 50.6466 306.812 55.9699 304.623 61.5149C303.528 64.3984 304.076 67.5036 307.359 69.278C309.548 70.6088 312.558 71.7178 315.294 72.3832C320.493 73.4922 324.598 70.6088 324.598 66.1728C324.598 64.1765 324.324 61.9585 324.871 59.9623C326.24 54.8609 330.344 50.8684 334.448 47.3196C336.637 45.3234 338.553 43.3272 338.827 40.6655C339.1 37.5603 338.827 34.4551 338.827 31.3499C339.1 31.5717 339.647 32.0153 339.921 32.6807C344.025 38.4475 343.478 44.2144 339.647 49.7594C337.458 53.0864 336.09 56.1917 336.364 59.7405C336.637 64.1765 340.468 68.169 345.12 68.8344C349.498 69.4998 351.961 67.7254 351.687 64.1765C351.687 63.0675 351.14 61.9585 350.866 61.0713C349.772 57.7443 352.782 54.1955 357.16 53.7519C356.065 55.3045 353.876 56.4135 354.971 58.4097C355.792 59.9623 357.16 61.5149 358.254 62.8457C358.528 63.0675 358.801 63.2893 358.801 63.5111C360.991 65.5074 361.538 67.9472 360.717 70.6088C360.443 72.1614 360.17 73.4922 359.349 74.6012Z" fill="white"/>
<path d="M56.4721 31.3498C54.0095 26.9138 52.6413 22.2559 54.5567 17.3763C55.104 16.2673 55.6513 15.1583 55.9249 13.8275C56.7458 11.3876 57.0194 8.94782 54.5567 6.9516C54.2831 6.7298 54.0095 6.28619 54.0095 6.06439C54.0095 6.06439 54.0095 6.06439 54.0095 5.84259C61.1239 8.06061 63.5865 12.2748 61.6711 18.4853C61.1239 20.2597 60.0293 22.0341 58.6612 23.5868C56.4722 26.9138 56.1985 27.5792 56.4721 31.3498Z" fill="white"/>
<path d="M250.461 63.2801C250.734 64.3891 251.008 65.4981 250.735 66.6071L251.008 79.9152L279.466 89.2309C286.033 73.0394 287.401 65.9417 287.127 63.9455C287.127 63.5019 287.127 59.953 287.674 59.5094C291.505 56.1824 292.053 52.19 288.222 48.6411C285.485 46.2013 285.759 43.5397 286.854 40.8781C287.401 39.7691 287.948 38.66 288.495 37.3292C288.222 37.3292 288.222 37.1074 287.948 37.1074C287.127 38.2164 286.033 39.3255 285.485 40.6563C283.844 43.9833 283.844 47.3103 285.212 50.6374C285.759 51.9682 285.485 53.0772 284.665 54.1862C283.844 55.2952 282.202 55.7388 280.56 55.2952C279.192 54.8516 278.371 53.9644 278.645 52.8554C279.192 50.8592 280.013 48.8629 280.56 47.0885C281.381 44.8705 282.476 42.6525 282.476 40.4345C282.749 35.333 280.286 30.897 276.456 26.9045C275.361 25.7955 273.993 24.9083 272.898 24.0211L272.625 24.2429C272.898 24.6865 273.446 25.3519 273.719 25.7955C274.814 27.5699 276.182 29.1226 277.003 31.1188C278.371 34.0022 278.097 37.1074 276.182 39.7691C275.087 41.5435 273.172 42.2089 270.983 41.7653C268.247 41.0999 266.605 39.3255 267.426 36.6638C267.973 34.6676 268.794 32.6714 269.615 30.897C267.7 32.4496 266.058 34.224 264.69 36.2202C261.68 41.0999 261.953 45.9795 264.142 50.8592C265.237 53.299 266.331 55.9606 267.152 58.4004C267.7 60.6184 267.426 62.8365 264.963 64.1673C262.227 65.7199 260.859 65.0545 260.312 62.8365C260.038 61.9492 259.764 60.8402 260.038 59.953C260.585 57.2914 259.764 55.0734 258.123 52.8554C256.754 51.081 255.386 49.3065 255.113 47.0885C254.839 47.5321 254.292 47.7539 254.292 48.1975C253.744 49.9719 254.565 51.3028 255.113 52.8554C255.66 54.1862 256.207 55.7388 256.481 57.0696C256.754 58.4004 255.66 59.2876 254.018 59.2876C252.376 59.2876 251.282 58.6222 251.282 57.0696C251.282 55.9606 251.829 54.6298 251.829 53.5208C249.366 54.8516 248.272 56.4042 248.819 58.844C249.366 60.3966 250.187 61.7275 250.461 63.2801Z" fill="white"/>
<path d="M273.854 57.2913C272.485 54.186 270.57 51.5244 272.759 48.641C273.306 49.75 273.853 51.0808 274.401 52.1898C274.948 53.9642 274.674 55.5169 273.854 57.2913Z" fill="white"/>
<path d="M571.454 99.0697C579.936 86.8706 579.389 69.57 579.389 68.0174C579.389 64.6904 578.021 61.807 573.369 60.2544C574.19 61.3634 574.737 62.0288 575.011 62.916C576.379 65.5776 575.011 68.2392 572.001 69.3482C569.265 70.4573 566.802 69.5701 564.887 66.6866C564.339 66.0212 564.066 65.134 563.792 64.4686C562.698 61.3634 564.066 58.7018 565.434 55.8183C568.717 49.8297 568.17 44.2846 562.698 38.9614C561.329 37.6306 561.329 35.4126 561.056 33.6381C560.782 32.9727 561.603 32.0855 561.603 31.1983C561.877 30.3111 561.877 29.6457 561.877 28.7585C558.319 32.9727 556.404 37.4088 558.867 42.2884C560.509 46.059 559.688 49.6079 556.678 52.7131C555.036 54.4875 552.3 54.7093 549.29 53.3785C546.827 52.2695 546.28 51.1605 547.374 48.7207C548.469 46.059 550.111 43.3974 551.205 40.514C552.3 37.4088 553.668 34.0817 553.394 30.7547C552.573 23.6571 547.648 18.3338 540.26 14.1196C538.345 13.0106 536.703 11.2362 536.155 9.68354C535.335 6.80011 535.608 3.91669 535.335 0.589661C534.787 2.36408 533.966 4.13849 533.693 5.6911C533.146 9.90534 532.872 13.8978 536.155 17.8902C539.439 21.8826 540.534 26.7623 539.713 31.6419C539.165 34.969 534.787 37.6306 529.862 37.6306C525.758 37.6306 522.474 35.1908 521.38 31.6419C520.559 28.0931 521.927 24.9879 523.842 22.1044C524.663 20.7736 525.758 19.221 526.578 17.8902C525.484 18.3338 524.937 18.9992 524.116 19.8864C518.917 25.4315 514.812 31.4201 516.181 38.7396C517.275 43.3974 518.643 48.2771 520.011 52.9349C520.832 55.8183 520.832 58.9236 518.643 61.5852C517.001 63.8032 513.444 64.9122 510.982 64.2468C509.066 63.5814 508.245 61.5852 508.793 58.9236C509.066 56.9273 509.34 54.7093 509.066 52.7131C508.793 49.6079 504.962 46.2808 501.131 45.6154C501.952 46.5027 503.32 47.3899 503.594 48.2771C504.415 52.4913 505.235 56.7055 501.405 60.4762C499.216 62.6942 495.932 63.3596 493.743 65.5776C491.828 67.352 491.554 69.3483 492.101 71.1227L571.454 99.0697Z" fill="white"/>
<path d="M632.527 69.6585C631.433 71.6547 630.338 74.9818 630.064 77.4216L665.363 75.869C665.363 75.6472 668.099 82.7448 668.099 82.523C667.552 78.087 666.457 71.2111 665.91 69.8803C665.089 66.1097 662.079 64.1135 659.343 61.2301C656.333 58.3466 655.785 55.2414 657.701 51.6926C658.248 50.5836 658.522 49.2528 659.069 47.4783C658.248 47.9219 658.248 48.1437 657.975 48.1437C653.87 52.1362 653.049 56.5722 655.238 61.4519C656.333 64.1135 656.606 66.5533 654.417 68.7713C651.681 71.433 647.85 71.2111 646.482 67.8841C645.661 65.8879 645.661 63.8917 645.661 61.6737C645.661 58.1248 646.482 54.7978 646.208 51.249C645.935 47.0347 641.557 41.0461 636.631 39.2717C637.452 40.6025 638.547 41.4897 639.368 42.8205C640.189 44.1513 641.557 45.4821 641.83 47.0347C643.472 52.8016 641.009 58.1248 637.179 63.0045C635.263 65.0007 633.622 67.4405 632.527 69.6585Z" fill="white"/>
<path d="M794.25 63.4217C793.703 68.0795 790.419 72.0719 786.862 76.0644C786.315 76.7298 785.767 76.9516 785.767 77.617C785.22 80.2786 784.125 83.8274 783.852 86.7109L814.498 90.0379C814.772 88.9289 817.235 83.8274 817.508 82.7184C818.329 79.1696 818.603 75.6208 821.613 72.5155C823.254 70.5193 825.443 68.7449 826.812 66.7487C830.916 61.6472 827.359 56.7676 818.329 54.9932C818.603 55.4368 818.876 55.8804 819.424 56.324C821.065 58.7638 821.065 61.4254 819.697 63.8653C819.15 64.9743 817.782 65.8615 815.593 65.6397C814.225 65.4179 812.309 64.7525 811.762 64.0871C810.941 62.9781 810.668 61.6473 810.394 60.5382C809.847 57.8766 812.309 55.6586 814.225 53.2188C817.782 49.2263 818.876 45.2339 817.235 41.0197C815.046 35.031 805.742 31.4822 798.081 30.595C799.449 31.2604 800.27 31.704 801.091 31.9258C806.289 33.7002 808.205 36.5836 809.299 39.6889C810.668 43.0159 805.195 46.5647 799.449 46.3429C793.976 46.1211 790.145 43.0159 791.24 39.6889C792.334 37.0272 793.702 34.5874 795.071 32.1476C797.26 28.1552 794.523 23.0537 787.956 20.8357C788.777 21.9447 789.872 22.8319 790.966 23.9409C792.882 25.7153 792.882 27.7116 790.693 29.486C789.324 30.595 788.23 31.4822 786.862 32.5912C778.106 39.6889 778.653 48.3391 788.777 54.9932C793.703 57.2112 794.797 60.0946 794.25 63.4217Z" fill="white"/>
<path d="M595.421 68.8847C594.874 73.5425 591.59 77.535 588.033 81.5274C587.486 82.1928 586.939 82.4146 586.939 83.08C586.391 85.7417 585.297 89.2905 585.023 92.1739L615.67 95.5009C615.943 94.3919 618.406 89.2905 618.68 88.1815C619.501 84.6326 619.774 81.0838 622.784 77.9786C624.426 75.9824 626.615 74.208 627.983 72.2117C632.088 67.1103 628.53 62.2307 619.501 60.4562C619.774 60.8998 620.048 61.3434 620.595 61.787C622.237 64.2269 622.237 66.8885 620.869 69.3283C620.321 70.4373 618.953 71.3245 616.764 71.1027C615.396 70.8809 613.481 70.2155 612.933 69.5501C612.113 68.4411 611.839 67.1103 611.565 66.0013C611.018 63.3397 613.481 61.1216 615.396 58.6818C618.953 54.6894 620.048 50.697 618.406 46.4827C616.217 40.4941 606.914 36.9452 599.252 36.058C600.62 36.7234 601.441 37.167 602.262 37.3888C607.461 39.1632 609.376 42.0467 610.471 45.1519C611.839 48.4789 606.366 52.0278 600.62 51.806C595.148 51.5842 591.317 48.4789 592.411 45.1519C593.506 42.4903 594.874 40.0505 596.242 37.6106C598.431 33.6182 595.695 28.5168 589.128 26.2987C589.949 27.4077 591.043 28.295 592.138 29.404C594.053 31.1784 594.053 33.1746 591.864 34.949C590.496 36.058 589.401 36.9452 588.033 38.0542C579.277 45.1519 579.824 53.8022 589.949 60.4562C594.874 62.6743 595.968 65.5577 595.421 68.8847Z" fill="white"/>
<path d="M426.006 65.0637C427.1 66.6163 421.08 79.9244 420.533 81.6989C419.438 84.1387 484.562 74.1576 484.836 72.3832C485.383 69.0561 485.93 65.7291 489.487 63.0675C491.95 61.2931 492.497 58.8533 491.677 56.4134C490.856 52.1992 488.667 48.6504 485.383 45.3233C482.647 42.4399 482.647 39.5565 484.289 36.2294C484.836 35.1204 485.383 33.7896 485.93 32.6806L485.383 32.4588C484.562 33.5678 483.468 34.8986 482.647 36.0076C479.637 41.1091 478.542 46.4323 480.731 51.9774C481.826 54.8608 481.279 57.966 477.995 59.7405C475.806 61.0713 472.796 62.1803 470.06 62.8457C464.861 63.9547 460.756 61.0713 460.756 56.6352C460.756 54.639 461.03 52.421 460.483 50.4248C459.115 45.3233 455.01 41.3309 450.906 37.7821C448.717 35.7858 446.801 33.7896 446.528 31.128C446.254 28.0228 446.528 24.9175 446.528 21.8123C446.254 22.0341 445.707 22.4777 445.433 23.1431C441.329 28.91 441.876 34.6768 445.707 40.2219C447.896 43.5489 449.264 46.6541 448.99 50.203C448.717 54.639 444.886 58.6314 440.234 59.2969C435.856 59.9623 433.394 58.1878 433.667 54.639C433.667 53.53 434.214 52.421 434.488 51.5338C435.583 48.2068 432.573 44.6579 428.195 44.2143C429.289 45.7669 431.478 46.8759 430.384 48.8722C429.563 50.4248 428.195 51.9774 427.1 53.3082C426.826 53.53 426.553 53.7518 426.553 53.9736C424.364 55.9698 423.816 58.4096 424.637 61.0713C424.911 62.6239 425.185 63.9547 426.006 65.0637Z" fill="white"/>
<path d="M779.655 74.6013C778.561 76.1539 784.58 89.462 785.128 91.2365C786.222 93.6763 721.099 83.6952 720.825 81.9208C720.278 78.5937 719.73 75.2667 716.173 72.6051C713.711 70.8307 713.163 68.3909 713.984 65.951C714.805 61.7368 716.994 58.188 720.278 54.8609C723.014 51.9775 723.014 49.0941 721.372 45.767C720.825 44.658 720.278 43.3272 719.73 42.2182L720.278 41.9964C721.099 43.1054 722.193 44.4362 723.014 45.5452C726.024 50.6467 727.118 55.9699 724.929 61.515C723.835 64.3984 724.382 67.5036 727.666 69.2781C729.855 70.6089 732.865 71.7179 735.601 72.3833C740.8 73.4923 744.904 70.6089 744.904 66.1728C744.904 64.1766 744.631 61.9586 745.178 59.9624C746.546 54.8609 750.65 50.8685 754.755 47.3197C756.944 45.3234 758.859 43.3272 759.133 40.6656C759.407 37.5604 759.133 34.4551 759.133 31.3499C759.407 31.5717 759.954 32.0153 760.227 32.6807C764.332 38.4476 763.785 44.2144 759.954 49.7595C757.765 53.0865 756.397 56.1917 756.67 59.7406C756.944 64.1766 760.775 68.169 765.426 68.8344C769.805 69.4999 772.267 67.7254 771.994 64.1766C771.994 63.0676 771.446 61.9586 771.173 61.0714C770.078 57.7444 773.088 54.1955 777.466 53.7519C776.372 55.3045 774.183 56.4135 775.277 58.4098C776.098 59.9624 777.466 61.515 778.561 62.8458C778.834 63.0676 779.108 63.2894 779.108 63.5112C781.297 65.5074 781.844 67.9472 781.023 70.6089C780.75 72.1615 780.476 73.4923 779.655 74.6013Z" fill="white"/>
<path d="M476.779 31.3499C474.316 26.9138 472.948 22.256 474.863 17.3764C475.41 16.2673 475.958 15.1583 476.231 13.8275C477.052 11.3877 477.326 8.94788 474.863 6.95166C474.59 6.72986 474.316 6.28626 474.316 6.06445C474.316 6.06445 474.316 6.06445 474.316 5.84265C481.43 8.06067 483.893 12.2749 481.978 18.4854C481.43 20.2598 480.336 22.0342 478.968 23.5868C476.779 26.9138 476.505 27.5792 476.779 31.3499Z" fill="white"/>
<path d="M670.769 63.28C671.043 64.389 671.316 65.498 671.043 66.607L671.316 79.9151L699.774 89.2308C706.341 73.0393 707.709 65.9416 707.435 63.9454C707.435 63.5018 707.435 59.953 707.983 59.5094C711.813 56.1823 712.361 52.1899 708.53 48.6411C705.794 46.2013 706.067 43.5396 707.162 40.878C707.709 39.769 708.256 38.66 708.803 37.3292C708.53 37.3292 708.53 37.1074 708.256 37.1074C707.435 38.2164 706.341 39.3254 705.794 40.6562C704.152 43.9832 704.152 47.3103 705.52 50.6373C706.067 51.9681 705.794 53.0771 704.973 54.1861C704.152 55.2951 702.51 55.7387 700.868 55.2951C699.5 54.8515 698.679 53.9643 698.953 52.8553C699.5 50.8591 700.321 48.8629 700.868 47.0885C701.689 44.8704 702.784 42.6524 702.784 40.4344C703.057 35.333 700.595 30.8969 696.764 26.9045C695.669 25.7955 694.301 24.9083 693.207 24.0211L692.933 24.2429C693.207 24.6865 693.754 25.3519 694.027 25.7955C695.122 27.5699 696.49 29.1225 697.311 31.1187C698.679 34.0021 698.405 37.1074 696.49 39.769C695.396 41.5434 693.48 42.2088 691.291 41.7652C688.555 41.0998 686.913 39.3254 687.734 36.6638C688.281 34.6675 689.102 32.6713 689.923 30.8969C688.008 32.4495 686.366 34.2239 684.998 36.2202C681.988 41.0998 682.261 45.9795 684.45 50.8591C685.545 53.2989 686.639 55.9605 687.46 58.4004C688.008 60.6184 687.734 62.8364 685.271 64.1672C682.535 65.7198 681.167 65.0544 680.62 62.8364C680.346 61.9492 680.072 60.8402 680.346 59.953C680.893 57.2913 680.072 55.0733 678.431 52.8553C677.062 51.0809 675.694 49.3065 675.421 47.0885C675.147 47.5321 674.6 47.7539 674.6 48.1975C674.053 49.9719 674.873 51.3027 675.421 52.8553C675.968 54.1861 676.515 55.7387 676.789 57.0695C677.062 58.4004 675.968 59.2876 674.326 59.2876C672.684 59.2876 671.59 58.6222 671.59 57.0695C671.59 55.9605 672.137 54.6297 672.137 53.5207C669.674 54.8515 668.58 56.4041 669.127 58.844C669.674 60.3966 670.495 61.7274 670.769 63.28Z" fill="white"/>
<path d="M694.162 57.2913C692.793 54.1861 690.878 51.5245 693.067 48.6411C693.614 49.7501 694.162 51.0809 694.709 52.1899C695.256 53.9643 694.983 55.5169 694.162 57.2913Z" fill="white"/>
</svg>
